<svg width="112" height="20" xmlns="http://www.w3.org/2000/svg" xmlns:xlink="http://www.w3.org/1999/xlink" xml:space="preserve" overflow="hidden"><defs><clipPath id="clip0"><rect x="13" y="186" width="112" height="20"/></clipPath></defs><g clip-path="url(#clip0)" transform="translate(-13 -186)"><path d="M7.74708 25.4411 7.74708 33.2755C7.74708 33.6689 7.4227 33.9876 7.0223 33.9876L4.12354 33.9876C3.72314 33.9876 3.39876 33.6689 3.39876 33.2755L3.39876 19.0313C3.39876 18.7363 3.58381 18.4718 3.8642 18.3664 3.8642 18.3664 10.1689 15.9918 12.042 15.2864 12.5429 15.0977 13.0972 15.0977 13.5982 15.2864 15.4712 15.9918 21.7761 18.3664 21.7761 18.3664 22.1495 18.507 22.3365 18.9192 22.1934 19.2861 22.0502 19.6533 21.6309 19.8371 21.2575 19.6964 21.2575 19.6964 14.9526 17.3218 13.0795 16.6164 12.9125 16.5535 12.7278 16.5535 12.5608 16.6164L4.84815 19.5212 4.84815 32.5631 6.29771 32.5631 6.29771 21.8802C6.29771 21.4868 6.62209 21.1679 7.0223 21.1679L18.6178 21.1679C19.0181 21.1679 19.3426 21.4868 19.3426 21.8802L19.3426 32.5631 20.7921 32.5631 20.7921 21.8802C20.7921 21.487 21.1167 21.1679 21.5167 21.1679 21.9166 21.1679 22.2414 21.487 22.2414 21.8802L22.2414 33.2755C22.2414 33.6689 21.917 33.9876 21.5167 33.9876L18.6178 33.9876C18.2176 33.9876 17.8931 33.6689 17.8931 33.2755L17.8931 25.4411 7.74708 25.4411ZM17.8931 24.0168 17.8931 22.5924 7.74708 22.5924 7.74708 24.0168 17.8931 24.0168Z" fill-rule="evenodd" transform="matrix(1.00556 0 0 1 9.58235 171.643)"/><text fill="#00680E" font-family="Aharoni,Aharoni_MSFontService,sans-serif" font-weight="700" font-size="596" transform="matrix(0.0273412 0 0 0.0271901 34.8105 205)">Surti</text><text font-family="Aharoni,Aharoni_MSFontService,sans-serif" font-weight="700" font-size="596" transform="matrix(0.0273412 0 0 0.0271901 74.723 205)">Fruver </text></g></svg>