<svg width="898" height="123" xmlns="http://www.w3.org/2000/svg" xmlns:xlink="http://www.w3.org/1999/xlink" xml:space="preserve" overflow="hidden"><defs><clipPath id="clip0"><rect x="71" y="423" width="898" height="123"/></clipPath></defs><g clip-path="url(#clip0)" transform="translate(-71 -423)"><path d="M63.4884 197.223 63.4884 244.252C63.4884 246.613 61.4909 248.525 59.0254 248.525L41.1758 248.525C38.7103 248.525 36.713 246.613 36.713 244.252L36.713 158.747C36.713 156.976 37.8524 155.389 39.5789 154.755 39.5789 154.755 78.4011 140.501 89.9349 136.267 93.0194 135.134 96.4326 135.134 99.5171 136.267 111.051 140.501 149.874 154.755 149.874 154.755 152.173 155.6 153.324 158.074 152.443 160.276 151.562 162.48 148.98 163.583 146.68 162.739 146.68 162.739 107.857 148.485 96.3234 144.251 95.2952 143.873 94.1578 143.873 93.1296 144.251L45.6378 161.687 45.6378 239.974 54.5636 239.974 54.5636 175.848C54.5636 173.487 56.5611 171.572 59.0254 171.572L130.426 171.572C132.891 171.572 134.889 173.487 134.889 175.848L134.889 239.974 143.814 239.974 143.814 175.848C143.814 173.488 145.813 171.572 148.277 171.572 150.739 171.572 152.739 173.488 152.739 175.848L152.739 244.252C152.739 246.613 150.741 248.525 148.277 248.525L130.426 248.525C127.962 248.525 125.964 246.613 125.964 244.252L125.964 197.223 63.4884 197.223ZM125.964 188.673 125.964 180.123 63.4884 180.123 63.4884 188.673 125.964 188.673Z" fill-rule="evenodd" transform="matrix(1.00157 0 0 1 34.4563 292.96)"/><text fill="#00680E" font-family="Aharoni,Aharoni_MSFontService,sans-serif" font-weight="700" font-size="550" transform="matrix(0.243625 0 0 0.243242 212.285 535)">Surti</text><text font-family="Aharoni,Aharoni_MSFontService,sans-serif" font-weight="700" font-size="550" transform="matrix(0.243625 0 0 0.243242 556.008 535)">Fruver</text></g></svg>